<svg xmlns="http://www.w3.org/2000/svg" width="83.66" height="15.76" viewBox="0 0 83.66 15.76">
  <path id="路径_1601" data-name="路径 1601" d="M8.44-3.4A12.413,12.413,0,0,0,8.3-5.32l-2.2.16a9.664,9.664,0,0,1,.12,1.42c0,1.42-.5,1.8-1.28,1.8-.9,0-1.3-.52-1.3-1.38v-8.56a1.234,1.234,0,0,1,1.28-1.36c.78,0,1.28.4,1.28,1.8a7.307,7.307,0,0,1-.12,1.4l2.24.14a12.631,12.631,0,0,0,.12-1.9c0-2.68-1.56-3.66-3.66-3.66-2.14,0-3.96,1.2-3.96,4.24v7.34C.82-.82,2.6.3,4.76.3,6.84.3,8.44-.7,8.44-3.4Zm9.34-7.96c0-3.02-1.88-4.1-4.04-4.1a3.754,3.754,0,0,0-4.1,4.1v7.58c0,2.86,1.92,4.02,4.1,4.02a3.716,3.716,0,0,0,4.04-4.02ZM14.98-3.3c0,.92-.48,1.44-1.24,1.44a1.282,1.282,0,0,1-1.32-1.46v-8.56c0-.96.52-1.42,1.3-1.42a1.256,1.256,0,0,1,1.26,1.42Zm12.6-11.9H25.22v8.06h-.1L22.18-15.2H19.54V0H21.9V-9H22l3.22,9h2.36Zm9.52,0H28.78v2.24h2.78V0h2.76V-12.96H37.1Zm5.02,0h-3L36.32,0h2.44l.32-2.08h2.76L42.14,0h2.78ZM39.4-4.38l.96-7.32h.04l1.1,7.32Zm13.88.98a12.413,12.413,0,0,0-.14-1.92l-2.2.16a9.664,9.664,0,0,1,.12,1.42c0,1.42-.5,1.8-1.28,1.8-.9,0-1.3-.52-1.3-1.38v-8.56a1.235,1.235,0,0,1,1.28-1.36c.78,0,1.28.4,1.28,1.8a7.307,7.307,0,0,1-.12,1.4l2.24.14a12.631,12.631,0,0,0,.12-1.9c0-2.68-1.56-3.66-3.66-3.66-2.14,0-3.96,1.2-3.96,4.24v7.34C45.66-.82,47.44.3,49.6.3,51.68.3,53.28-.7,53.28-3.4Zm8.96-11.8H53.92v2.24H56.7V0h2.76V-12.96h2.78Zm13.32,0H73.02V-3.38a1.343,1.343,0,0,1-1.44,1.4c-1.12,0-1.56-.54-1.56-1.38V-15.2H67.24V-3.64c0,2.42,1.84,3.88,4.24,3.88a3.8,3.8,0,0,0,4.08-3.9ZM84.48-3.86c0-2.2-1.78-3.82-3.42-5.26-1.12-.98-1.76-1.72-1.76-2.66v-.14a1.3,1.3,0,0,1,1.4-1.38c.7,0,1.32.36,1.32,1.84a5.972,5.972,0,0,1-.14,1.42l2.22.12a10.609,10.609,0,0,0,.14-1.76,3.463,3.463,0,0,0-3.74-3.78,3.543,3.543,0,0,0-3.86,3.7v.16c0,1.8,1.34,3.32,2.88,4.72,1.76,1.62,2.34,2.4,2.34,3.28v.26a1.372,1.372,0,0,1-1.5,1.48c-.84,0-1.48-.44-1.48-1.7a9.623,9.623,0,0,1,.16-1.6l-2.26-.16a10.65,10.65,0,0,0-.18,1.78C76.6-1.1,78,.24,80.44.24a3.694,3.694,0,0,0,4.04-3.82Z" transform="translate(-0.82 15.46)" fill="#203260"/>
</svg>
