<svg xmlns="http://www.w3.org/2000/svg" width="16.864" height="22" viewBox="0 0 16.864 22">
  <g id="组_720" data-name="组 720" transform="translate(6280 3787)">
    <g id="组_719" data-name="组 719" transform="translate(-6280 -3787)">
      <g id="路径_757" data-name="路径 757" fill="none">
        <path d="M0,5.045,4.993,0H16.864V22H0Z" stroke="none"/>
        <path d="M 5.82721996307373 2 L 1.999998092651367 5.867067337036133 L 1.999998092651367 20 L 14.86429786682129 20 L 14.86429786682129 2 L 5.82721996307373 2 M 4.992717742919922 0 L 16.86429786682129 0 L 16.86429786682129 22 L -1.9073486328125e-06 22 L -1.9073486328125e-06 5.044700622558594 L 4.992717742919922 0 Z" stroke="none" fill="#333"/>
      </g>
      <path id="路径_756" data-name="路径 756" d="M-6276.2-3787v3.567h-3.783" transform="translate(6281.351 3788.692)" fill="none" stroke="#333" stroke-width="2"/>
    </g>
    <path id="路径_758" data-name="路径 758" d="M-6275.655-3777.5h10.815" transform="translate(-1.336 0.137)" fill="none" stroke="#333" stroke-width="2"/>
    <path id="路径_760" data-name="路径 760" d="M-6275.655-3777.5h10.815" transform="translate(-1.336 3.239)" fill="none" stroke="#333" stroke-width="2"/>
    <path id="路径_761" data-name="路径 761" d="M-6275.655-3777.5h10.815" transform="translate(-1.336 6.624)" fill="none" stroke="#333" stroke-width="2"/>
  </g>
</svg>
