<svg xmlns="http://www.w3.org/2000/svg" width="55.316" height="15.668" viewBox="0 0 55.316 15.668">
  <path id="路径_1619" data-name="路径 1619" d="M5.455-12.109H2.863L.192,3.041H2.265L2.6.788H5.455l.379,2.253H8.146ZM2.883-1.145,3.92-9.019h.1L5.156-1.145ZM16.7-8.242c0-2.671-1.5-3.867-3.548-3.867H9.381V3.041h2.292V-3.179h.837c1.2,0,1.435.777,1.5,2.671.02.937.04,1.674.08,2.771a2.328,2.328,0,0,0,.14.777h2.432A6.035,6.035,0,0,1,16.378.748c0-.359-.02-.977-.02-1.415-.04-2.033-.439-3.13-1.973-3.488v-.1C16.039-4.733,16.7-6.089,16.7-8.242ZM14.4-7.8c0,2.193-.718,2.791-1.734,2.791h-1v-5.163H12.71C13.767-10.175,14.4-9.637,14.4-7.8ZM25.289-.208a10.14,10.14,0,0,0-.14-1.894l-1.874.159a6.389,6.389,0,0,1,.12,1.375c0,1.455-.478,1.934-1.375,1.934C20.963,1.366,20.5.709,20.5-.288V-8.8a1.489,1.489,0,0,1,1.515-1.635c.917,0,1.355.439,1.355,1.954a7.456,7.456,0,0,1-.12,1.355l1.914.14a13.466,13.466,0,0,0,.12-1.874c0-2.591-1.415-3.508-3.409-3.508-2.013,0-3.668,1.116-3.668,4.106V-.707c0,2.99,1.615,4.007,3.648,4.007C23.833,3.3,25.289,2.4,25.289-.208Zm9.329-11.9H32.325v6.538H29.1v-6.538H26.8V3.041H29.1V-3.637h3.229V3.041h2.292Zm4.286,0H36.611V3.041H38.9Zm7.057,0L44.266-.348h-.1L42.492-12.109H40.1l2.611,15.15h2.851l2.611-15.15ZM55.508,1.107H51.661v-5H54.95V-5.83H51.661v-4.346h3.807v-1.934h-6.1V3.041h6.14Z" transform="translate(-0.191 12.368)" fill="#203260"/>
</svg>
