<svg xmlns="http://www.w3.org/2000/svg" width="114.801" height="15.7" viewBox="0 0 114.801 15.7">
  <path id="路径_1602" data-name="路径 1602" d="M12.48-15.2H9.1L6.74-5.52H6.66L4.42-15.2H.94V0H3.32V-8.24h.1L5.54,0h2L9.62-8.16H9.7V0h2.78ZM21-2.24H17.14V-6.8h3.3V-9.04h-3.3v-3.92h3.82V-15.2h-6.6V0H21ZM34.08-15.2H30.7L28.34-5.52h-.08L26.02-15.2H22.54V0h2.38V-8.24h.1L27.14,0h2l2.08-8.16h.08V0h2.78ZM44.18-4.16c0-1.96-.7-3.18-2.2-3.6V-7.8c1.38-.48,1.98-1.7,1.98-3.5,0-2.68-1.5-3.9-3.78-3.9H35.96V0H40A3.833,3.833,0,0,0,44.18-4.16Zm-2.8-6.66c0,1.48-.7,1.96-1.5,1.96H38.74v-4.08h1.14C40.68-12.94,41.38-12.56,41.38-10.82Zm.1,6.26c0,1.76-.66,2.3-1.54,2.3h-1.2v-4.4h1.2C40.68-6.66,41.48-6.22,41.48-4.56ZM52.22-2.24H48.36V-6.8h3.3V-9.04h-3.3v-3.92h3.82V-15.2h-6.6V0h6.64ZM61.8-11.2c0-2.74-1.62-4-3.8-4H53.76V0h2.78V-6.1h.82c.96,0,1.22.54,1.28,2.42.02.92.06,1.64.1,2.7a1.876,1.876,0,0,0,.2.98h2.8a6.289,6.289,0,0,1-.3-2.48c0-.34-.02-.94-.02-1.36-.04-2-.4-3.02-1.94-3.36v-.08C61.12-7.74,61.8-9.06,61.8-11.2Zm-2.78.42c0,2.08-.68,2.54-1.5,2.54h-.98v-4.72h1.02C58.44-12.96,59.02-12.5,59.02-10.78ZM74.78-3.86c0-2.2-1.78-3.82-3.42-5.26-1.12-.98-1.76-1.72-1.76-2.66v-.14A1.3,1.3,0,0,1,71-13.3c.7,0,1.32.36,1.32,1.84a5.972,5.972,0,0,1-.14,1.42l2.22.12a10.609,10.609,0,0,0,.14-1.76,3.463,3.463,0,0,0-3.74-3.78,3.543,3.543,0,0,0-3.86,3.7v.16c0,1.8,1.34,3.32,2.88,4.72,1.76,1.62,2.34,2.4,2.34,3.28v.26a1.372,1.372,0,0,1-1.5,1.48c-.84,0-1.48-.44-1.48-1.7a9.623,9.623,0,0,1,.16-1.6l-2.26-.16a10.65,10.65,0,0,0-.18,1.78C66.9-1.1,68.3.24,70.74.24a3.694,3.694,0,0,0,4.04-3.82ZM83.8-15.2H75.48v2.24h2.78V0h2.76V-12.96H83.8Zm5.02,0h-3L83.02,0h2.44l.32-2.08h2.76L88.84,0h2.78ZM86.1-4.38l.96-7.32h.04l1.1,7.32ZM98.82-15.2H90.5v2.24h2.78V0h2.76V-12.96h2.78Zm7.84,12.96H102.8V-6.8h3.3V-9.04h-3.3v-3.92h3.82V-15.2h-6.6V0h6.64Zm9.08-1.62c0-2.2-1.78-3.82-3.42-5.26-1.12-.98-1.76-1.72-1.76-2.66v-.14a1.3,1.3,0,0,1,1.4-1.38c.7,0,1.32.36,1.32,1.84a5.972,5.972,0,0,1-.14,1.42l2.22.12a10.609,10.609,0,0,0,.14-1.76,3.463,3.463,0,0,0-3.74-3.78,3.543,3.543,0,0,0-3.86,3.7v.16c0,1.8,1.34,3.32,2.88,4.72,1.76,1.62,2.34,2.4,2.34,3.28v.26a1.372,1.372,0,0,1-1.5,1.48c-.84,0-1.48-.44-1.48-1.7a9.623,9.623,0,0,1,.16-1.6l-2.26-.16a10.65,10.65,0,0,0-.18,1.78c0,2.44,1.4,3.78,3.84,3.78a3.694,3.694,0,0,0,4.04-3.82Z" transform="translate(-0.939 15.46)" fill="#203260"/>
</svg>
