<svg xmlns="http://www.w3.org/2000/svg" width="68.6" height="15.7" viewBox="0 0 68.6 15.7">
  <path id="路径_1604" data-name="路径 1604" d="M5.96-15.2h-3L.16,0H2.6l.32-2.08H5.68L5.98,0H8.76ZM3.24-4.38,4.2-11.7h.04l1.1,7.32Zm14.84.22c0-1.96-.7-3.18-2.2-3.6V-7.8c1.38-.48,1.98-1.7,1.98-3.5,0-2.68-1.5-3.9-3.78-3.9H9.86V0H13.9A3.833,3.833,0,0,0,18.08-4.16Zm-2.8-6.66c0,1.48-.7,1.96-1.5,1.96H12.64v-4.08h1.14C14.58-12.94,15.28-12.56,15.28-10.82Zm.1,6.26c0,1.76-.66,2.3-1.54,2.3h-1.2v-4.4h1.2C14.58-6.66,15.38-6.22,15.38-4.56Zm12.12-6.8c0-3.02-1.88-4.1-4.04-4.1a3.754,3.754,0,0,0-4.1,4.1v7.58c0,2.86,1.92,4.02,4.1,4.02A3.716,3.716,0,0,0,27.5-3.78ZM24.7-3.3c0,.92-.48,1.44-1.24,1.44a1.282,1.282,0,0,1-1.32-1.46v-8.56c0-.96.52-1.42,1.3-1.42a1.256,1.256,0,0,1,1.26,1.42ZM37.5-15.2H34.96V-3.38a1.343,1.343,0,0,1-1.44,1.4c-1.12,0-1.56-.54-1.56-1.38V-15.2H29.18V-3.64c0,2.42,1.84,3.88,4.24,3.88a3.8,3.8,0,0,0,4.08-3.9Zm9.02,0H38.2v2.24h2.78V0h2.76V-12.96h2.78Zm13.32,0H57.3V-3.38a1.343,1.343,0,0,1-1.44,1.4c-1.12,0-1.56-.54-1.56-1.38V-15.2H51.52V-3.64c0,2.42,1.84,3.88,4.24,3.88a3.8,3.8,0,0,0,4.08-3.9ZM68.76-3.86c0-2.2-1.78-3.82-3.42-5.26-1.12-.98-1.76-1.72-1.76-2.66v-.14a1.3,1.3,0,0,1,1.4-1.38c.7,0,1.32.36,1.32,1.84a5.972,5.972,0,0,1-.14,1.42l2.22.12a10.609,10.609,0,0,0,.14-1.76,3.463,3.463,0,0,0-3.74-3.78,3.543,3.543,0,0,0-3.86,3.7v.16c0,1.8,1.34,3.32,2.88,4.72,1.76,1.62,2.34,2.4,2.34,3.28v.26a1.372,1.372,0,0,1-1.5,1.48c-.84,0-1.48-.44-1.48-1.7a9.623,9.623,0,0,1,.16-1.6l-2.26-.16a10.65,10.65,0,0,0-.18,1.78c0,2.44,1.4,3.78,3.84,3.78a3.694,3.694,0,0,0,4.04-3.82Z" transform="translate(-0.16 15.46)" fill="#203260"/>
</svg>
